<svg fill="none" height="24" viewBox="0 0 24 24" width="24" xmlns="http://www.w3.org/2000/svg"><path d="m17.3604 20h-9.3604v-10c.62474 0 1.20815-.31223 1.5547-.83205l2.5547-3.83205c.5564-.8346 1.4931-1.3359 2.4962-1.3359h.2139c.618 0 1.088.55487.9864 1.1644l-.8059 4.8356h3.5604c1.2621 0 2.2087 1.1547 1.9612 2.3922l-1.2 6c-.187.9349-1.0078 1.6078-1.9612 1.6078z" fill="#292929" opacity=".16"/><path d="m15 10-.9864-.1644c-.0483.29.0334.5865.2234.8108s.469.3536.763.3536zm-11 0v-1c-.55228 0-1 .44772-1 1zm16.5216 2.3922.9805.1962zm-14.5216 8.6078h11.3604v-2h-11.3604zm12.5604-12h-3.5604v2h3.5604zm-2.574 1.1644.8059-4.8356-1.9728-.3288-.8059 4.8356zm-1.1669-7.1644h-.2139v2h.2139zm-3.5422 1.7812-2.51562 3.7735 1.66412 1.1094 2.5157-3.7735zm-3.34767 4.2188h-3.92963v2h3.92963zm-4.92963 1v8h2v-8zm17.3021 8.5883 1.2-5.9999-1.9611-.3923-1.2 6zm-11.54042-10.0336c-.18546.2782-.49769.4453-.83205.4453v2c1.00306 0 1.93976-.5013 2.49617-1.3359zm8.03062-3.2259c.2032-1.21907-.7369-2.3288-1.9728-2.3288v2zm1.7681 5.6712c.631 0 1.1043.5773.9806 1.1961l1.9611.3923c.3713-1.8564-1.0486-3.5884-2.9417-3.5884zm-1.2 10c1.43 0 2.6613-1.0094 2.9417-2.4117l-1.9611-.3922c-.0935.4674-.5039.8039-.9806.8039zm-2.7548-18c-1.3375 0-2.5864.6684-3.3283 1.7812l1.6642 1.1094c.3709-.5564.9953-.8906 1.6641-.8906zm-8.6056 16c-.55228 0-1-.4477-1-1h-2c0 1.6569 1.34315 3 3 3z" fill="#292929"/><path d="m8 10v10" stroke="#292929" stroke-width="2"/></svg>