<svg fill="none" height="24" viewBox="0 0 24 24" width="24" xmlns="http://www.w3.org/2000/svg"><path d="m19.5063 7.95952c-1.4397 5.65518-5.8916 10.10708-11.54677 11.54678-2.14086.545-3.95953-1.2972-3.95953-3.5063v-1c0-.5523.44883-.9947.99842-1.0492.92854-.0921 1.81973-.3111 2.65596-.6396l1.51928 1.5193c2.47104-1.1825 4.47434-3.1858 5.65684-5.65683l-1.5193-1.51929c.3285-.83622.5475-1.72742.6396-2.65596.0545-.54959.4969-.99842 1.0492-.99842h1c2.2091 0 4.0513 1.81867 3.5063 3.95952z" fill="#292929" opacity=".16"/><path d="m19.5063 7.95952c-1.4397 5.65518-5.8916 10.10708-11.54677 11.54678-2.14086.545-3.95953-1.2972-3.95953-3.5063v-1c0-.5523.44883-.9947.99842-1.0492.92854-.0921 1.81973-.3111 2.65596-.6396l1.51928 1.5193c2.47104-1.1825 4.47434-3.1858 5.65684-5.65683l-1.5193-1.51929c.3285-.83622.5475-1.72742.6396-2.65596.0545-.54959.4969-.99842 1.0492-.99842h1c2.2091 0 4.0513 1.81867 3.5063 3.95952z" stroke="#292929" stroke-linecap="round" stroke-linejoin="round" stroke-width="2"/></svg>