<svg width="880" height="880" viewBox="0 0 880 880" fill="none" xmlns="http://www.w3.org/2000/svg">
<path d="M426.628 488.042C425.832 487.851 424.927 487.539 424.616 487.347C424.305 487.155 422.269 486.522 420.09 485.94C416.971 485.107 415.654 484.966 413.899 485.277C408.635 486.209 406.472 486.473 405.812 486.261C404.194 485.742 397.1 482.701 396.612 482.317C396.321 482.088 394.317 481.294 392.16 480.553C390.002 479.812 387.428 478.857 386.438 478.431C385.449 478.005 383.445 477.441 381.986 477.178C380.526 476.915 377.645 476.19 375.583 475.569C373.521 474.947 368.881 474.119 365.272 473.729C358.122 472.955 350.251 470.643 348.548 468.815C348.06 468.291 347.497 467.862 347.298 467.862C347.1 467.862 344.661 465.67 341.879 462.991C337.235 458.518 336.555 458.036 333.549 457.087C331.459 456.428 329.655 456.145 328.558 456.305C318.946 457.71 314.356 457.983 307.625 457.551C303.188 457.266 298.867 456.678 295.908 455.956C293.331 455.328 289.463 454.573 287.314 454.279C285.164 453.986 282.046 453.326 280.384 452.812C276.056 451.475 265.753 450.057 260.353 450.054C255.932 450.052 246.06 448.668 238.057 446.928C234.08 446.063 226.591 446.285 220.513 447.448C215.921 448.327 215.342 448.677 214.649 450.989C213.368 455.264 210.832 455.806 205.512 452.941C203.676 451.953 200.953 450.747 199.461 450.261L196.749 449.378L192.9 450.723C190.783 451.462 188.734 452.322 188.347 452.634C187.961 452.946 186.484 453.753 185.067 454.429C183.649 455.105 181.606 456.347 180.526 457.19C179.446 458.033 177.243 459.754 175.631 461.014C174.018 462.275 170.895 464.173 168.689 465.232L164.679 467.159H157.649C151.339 467.159 150.187 467.028 146.401 465.881C144.081 465.179 140.601 464.372 138.668 464.089C136.735 463.805 133.782 463.177 132.106 462.693C130.431 462.208 126.32 461.462 122.97 461.033C115.808 460.117 112.207 460.511 107.331 462.746C105.691 463.497 104.08 464.112 103.752 464.112C103.423 464.112 102.081 464.851 100.769 465.753C99.4576 466.655 98.1885 467.393 97.9489 467.393C97.7093 467.393 96.5969 468.153 95.477 469.081C94.3571 470.009 92.6177 471.433 91.6117 472.244C90.6057 473.056 89.2763 474.197 88.6575 474.778C87.6726 475.705 86.1805 476.877 81.0721 480.737C80.3995 481.245 79.5855 482.019 79.2632 482.457C78.9408 482.895 77.6264 483.602 76.3422 484.029C74.3872 484.678 73.5884 484.717 71.4333 484.27C70.0177 483.976 67.9577 483.257 66.8555 482.672C65.7534 482.087 63.9199 481.459 62.781 481.278C60.831 480.968 59.5105 479.99 59.4768 478.831C59.4687 478.549 59.9904 477.706 60.6364 476.957C61.2824 476.208 61.9296 475.225 62.0746 474.773C62.2197 474.321 62.8374 473.688 63.4473 473.367C64.0573 473.046 65.0446 472.059 65.6413 471.175C66.9377 469.253 68.6733 468.668 71.9539 469.046C73.4613 469.219 74.4862 469.135 74.6798 468.822C74.9823 468.332 77.9596 466.252 82.4258 463.409C83.6408 462.636 85.2851 461.582 86.08 461.066C88.0991 459.756 90.198 458.452 92.4922 457.082C96.139 454.904 98.5844 453.217 101.643 450.77C105.801 447.442 105.917 447.395 111.987 446.563C119.265 445.566 130.469 443.544 133.044 442.763C137.99 441.263 142.835 439.373 144.172 438.421C144.962 437.858 145.799 437.398 146.033 437.398C146.586 437.398 150.437 432.848 151.288 431.188C151.652 430.479 152.118 429.899 152.324 429.899C152.53 429.899 152.975 429.371 153.313 428.726C153.651 428.08 156.25 425.18 159.088 422.281C165.541 415.691 167.685 411.791 167.019 407.852L166.706 405.997H164.016C161.024 405.997 153.132 408.355 151.556 409.72C151.041 410.166 149.776 411.027 148.744 411.632C145.976 413.256 144.358 414.613 138.7 420.057C130.055 428.375 127.264 430.781 121.574 434.82C116.934 438.113 112.229 440.861 109.999 441.579C109.053 441.883 108.024 442.44 107.712 442.816C107.399 443.192 105.959 443.841 104.511 444.258C103.062 444.675 100.886 445.515 99.6742 446.124C98.3869 446.772 95.5389 447.522 92.8211 447.931C90.2635 448.315 86.8257 448.946 85.1817 449.334C83.5377 449.721 80.1695 450.041 77.6968 450.045C73.9255 450.05 72.8815 449.882 71.2192 448.998C70.1293 448.418 68.8834 447.348 68.4506 446.621C67.6939 445.35 67.7031 445.267 68.6926 444.458C69.5933 443.721 70.789 443.61 78.3004 443.565C84.0414 443.531 87.6546 443.299 89.2228 442.863C96.7455 440.772 100.591 439.558 101.51 438.983C102.082 438.626 103.664 437.896 105.025 437.362C106.387 436.828 107.923 436.009 108.438 435.543C108.954 435.077 110.114 434.326 111.016 433.874C111.918 433.422 113.5 432.347 114.531 431.485C115.562 430.623 117.039 429.391 117.812 428.746C118.585 428.102 122.225 424.67 125.9 421.121C137.366 410.046 143.169 405.033 145.642 404.066C146.256 403.826 147.381 403.186 148.143 402.644C149.506 401.673 154.923 399.562 159.524 398.209C162.236 397.412 169.654 397.283 173.153 397.974C175.121 398.362 176.46 398.25 180.886 397.329C183.83 396.716 186.977 395.984 187.879 395.702C191.55 394.556 205.461 394.132 219.884 394.725C238.528 395.493 254.279 394.755 264.038 392.656C272.744 390.784 280.988 389.513 290.05 388.645C299.628 387.729 303.769 387.072 306.097 386.099C306.948 385.743 310.527 385.013 314.052 384.475C317.576 383.937 320.969 383.304 321.592 383.067C322.214 382.83 325.548 382.185 329 381.632C332.452 381.08 336.964 380.129 339.026 379.519C341.088 378.908 344.53 378.061 346.675 377.636C348.819 377.212 351.245 376.586 352.065 376.245C352.884 375.905 355.664 375.293 358.242 374.886C360.82 374.478 364.932 373.733 367.381 373.231C369.83 372.728 373.054 372.172 374.546 371.994C376.038 371.816 377.689 371.322 378.217 370.895C379.112 370.17 379.128 370.027 378.46 368.725C375.522 362.994 375.516 362.591 378.359 361.949C380.07 361.564 380.157 361.614 383.19 364.764C386.011 367.692 386.548 368.037 389.367 368.735C396.906 370.6 402.357 372.323 403.904 373.33C409.702 377.103 411.089 378.162 412.516 379.91C413.392 380.982 414.539 382.836 415.064 384.029C416.407 387.076 421.181 391.311 426.668 394.321C427.7 394.886 429.775 396.184 431.281 397.205C433.919 398.992 434.009 399.12 433.716 400.676C432.969 404.66 428.285 410.248 424.482 411.693C419.881 413.441 411.147 412.504 404.4 409.537C401.562 408.289 399.466 407.74 396.063 407.354C388.488 406.494 373.668 407.715 369.345 409.556C368.394 409.961 366.245 410.719 364.569 411.241C359.647 412.775 355.942 414.715 354.152 416.696C352.435 418.596 351.001 422.416 350.89 425.386C350.826 427.083 352.34 430.606 354 432.626C354.568 433.317 355.404 434.832 355.856 435.992C356.309 437.152 357.077 438.748 357.564 439.539C358.05 440.33 358.75 442.274 359.12 443.86C359.797 446.763 360.955 448.699 362.777 449.975C363.523 450.497 366.123 450.752 373.423 451.018C378.735 451.212 383.641 451.588 384.325 451.854C386.823 452.825 391.32 453.353 400.69 453.773C409.38 454.163 410.692 454.336 414.892 455.643C417.437 456.434 419.733 457.082 419.993 457.082C420.641 457.082 427.542 460.592 430.418 462.384C431.707 463.187 433.921 464.989 435.339 466.389C436.757 467.788 438.658 469.402 439.564 469.974C442.567 471.872 442.607 472.019 441.463 476.971C440.366 481.716 440.57 481.431 435.164 485.792C433.51 487.126 430.174 488.52 428.836 488.435C428.417 488.409 427.423 488.232 426.628 488.042ZM433.211 476.51C434.149 475.27 434.119 475.15 432.688 474.385C432.004 474.02 430.322 472.315 428.951 470.597C427.091 468.266 426.068 467.39 424.923 467.145C424.078 466.965 421.911 466.341 420.107 465.758C416.555 464.611 414.12 464.313 403 463.665C394.8 463.187 389.775 463.545 388.631 464.689C387.93 465.39 388.103 465.562 390.866 466.901C392.513 467.7 395.654 469.296 397.845 470.449C400.036 471.601 403.305 472.956 405.109 473.46C406.914 473.964 409.612 474.814 411.106 475.35C414.117 476.429 424.941 477.708 429.594 477.535C431.863 477.45 432.674 477.221 433.211 476.51ZM407.232 387C407.716 386.417 407.711 386.062 407.21 385.125C406.869 384.489 406.451 383.969 406.281 383.969C406.11 383.969 405.692 384.489 405.352 385.125C404.85 386.062 404.846 386.417 405.33 387C405.658 387.395 406.086 387.719 406.28 387.719C406.475 387.719 406.903 387.395 407.232 387Z" fill="black"/>
</svg>
